<svg xmlns="http://www.w3.org/2000/svg" version="1.1" xmlns:xlink="http://www.w3.org/1999/xlink" xmlns:svgjs="http://svgjs.dev/svgjs" width="1500" height="1500" viewBox="0 0 1500 1500"><rect width="1500" height="1500" fill="#000000"></rect><g transform="matrix(0.6666666666666666,0,0,0.6666666666666666,249.39393939393938,438.5856950067477)"><svg viewBox="0 0 396 247" data-background-color="#ff005b" preserveAspectRatio="xMidYMid meet" height="935" width="1500" xmlns="http://www.w3.org/2000/svg" xmlns:xlink="http://www.w3.org/1999/xlink"><g id="tight-bounds" transform="matrix(1,0,0,1,0.2400000000000091,-0.09999999999999432)"><svg viewBox="0 0 395.52 247.2" height="247.2" width="395.52"><g><svg></svg></g><g><svg viewBox="0 0 395.52 247.2" height="247.2" width="395.52"><g><path d="M55.039 247.2l26.403-45.732 4.386 0-24.09 41.725h272.044l-24.09-41.725 4.386 0 26.403 45.732zM197.76 0l26.403 45.732h-4.386l-22.017-38.135-22.017 38.135-4.386 0z" fill="#ffffff" fill-rule="nonzero" stroke="none" stroke-width="1" stroke-linecap="butt" stroke-linejoin="miter" stroke-miterlimit="10" stroke-dasharray="" stroke-dashoffset="0" font-family="none" font-weight="none" font-size="none" text-anchor="none" style="mix-blend-mode: normal" data-fill-palette-color="tertiary"></path></g><g transform="matrix(1,0,0,1,53.94796374035957,67.97999999999999)"><svg viewBox="0 0 287.62407251928084 111.24" height="111.24" width="287.62407251928084"><g><svg viewBox="0 0 395.52000000000004 152.96927136392807" height="111.24" width="287.62407251928084"><g><svg viewBox="0 0 395.52000000000004 152.96927136392807" height="152.96927136392807" width="395.52000000000004"><g id="textblocktransform"><svg viewBox="0 0 395.52000000000004 152.96927136392807" height="152.96927136392807" width="395.52000000000004" id="textblock"><g><svg viewBox="0 0 395.52000000000004 88.46841144248327" height="88.46841144248327" width="395.52000000000004"><g transform="matrix(1,0,0,1,0,0)"><svg width="395.52000000000004" viewBox="0.7 -36.3 164.29000000000002 36.75" height="88.46841144248327" data-palette-color="#ffffff"><path d="M4.65 0.2L4.65 0.2Q3.1 0.2 1.9-0.55 0.7-1.3 0.7-3.05L0.7-3.05Q0.7-5.8 1.88-8.65 3.05-11.5 4.78-14.28 6.5-17.05 8.22-19.7 9.95-22.35 11.13-24.75 12.3-27.15 12.3-29.2L12.3-29.2Q12.3-30.85 11.5-30.85L11.5-30.85Q10.95-30.85 10.25-29.98 9.55-29.1 9.25-27.4L9.25-27.4 8.7-27.5Q8.7-30.35 10.05-32.33 11.4-34.3 13.5-35.3 15.6-36.3 17.8-36.3L17.8-36.3Q20.35-36.3 22.58-34.85 24.8-33.4 25.65-30.25L25.65-30.25Q26-29 26.18-27.45 26.35-25.9 26.4-24.78 26.45-23.65 26.45-23.65L26.45-23.65Q26.55-19.6 26.63-16.8 26.7-14 26.9-12.1 27.1-10.2 27.45-8.9L27.45-8.9Q27.8-7.65 28.38-6.88 28.95-6.1 29.85-6.1L29.85-6.1Q30.7-6.1 31.33-6.6 31.95-7.1 32.15-7.55L32.15-7.55 32.5-7.3Q32.5-5 31.6-3.3 30.7-1.6 29.25-0.7 27.8 0.2 26.2 0.2L26.2 0.2Q24.65 0.2 23.18-0.73 21.7-1.65 20.6-3.6 19.5-5.55 19.15-8.65L19.15-8.65Q17.6-8.75 16.13-8.83 14.65-8.9 13.45-8.9L13.45-8.9Q12.65-8.9 11.93-8.88 11.2-8.85 10.5-8.8L10.5-8.8Q10.05-7.25 9.78-5.68 9.5-4.1 9.5-2.6L9.5-2.6Q9.5-1.45 8-0.63 6.5 0.2 4.65 0.2ZM12.15-13.45L12.15-13.45Q13.4-13.8 14.8-13.93 16.2-14.05 17.8-14.05L17.8-14.05 18.9-14.05Q18.8-17.75 18.63-21.65 18.45-25.55 17.35-28.9L17.35-28.9Q16.95-25.3 15.35-21.35 13.75-17.4 12.15-13.45ZM42.1 0.2L42.1 0.2Q40.5 0.2 39.07-0.53 37.65-1.25 36.77-2.8 35.9-4.35 35.9-6.75L35.9-6.75Q35.9-8.05 36.15-10.15 36.4-12.25 36.82-14.75 37.25-17.25 37.7-19.75L37.7-19.75Q36.7-19.7 35.77-19.55 34.85-19.4 33.95-19.2L33.95-19.2 33.85-19.55Q34.85-20.75 35.95-21.6 37.05-22.45 38.25-23L38.25-23Q38.9-26.3 39.35-28.73 39.8-31.15 39.8-31.6L39.8-31.6Q39.8-32.45 41.12-33 42.45-33.55 44.1-33.55L44.1-33.55Q45.55-33.55 46.82-33 48.1-32.45 48.55-31.15L48.55-31.15Q48.25-30.85 47.7-28.93 47.15-27 46.55-24.25L46.55-24.25Q47.5-24.2 48.5-24.15 49.5-24.1 50.55-24L50.55-24Q50.65-23.7 50.7-23.35 50.75-23 50.75-22.6L50.75-22.6Q50.75-21.85 50.52-20.98 50.3-20.1 50-19.4L50-19.4Q48.8-19.5 47.75-19.63 46.7-19.75 45.7-19.8L45.7-19.8Q45.3-17.65 44.97-15.5 44.65-13.35 44.47-11.6 44.3-9.85 44.3-8.85L44.3-8.85Q44.3-6.75 45.07-6.05 45.85-5.35 46.95-5.35L46.95-5.35Q47.95-5.35 48.75-5.75 49.55-6.15 49.9-6.7L49.9-6.7 50.4-6.55Q50.1-4.5 48.8-2.98 47.5-1.45 45.7-0.63 43.9 0.2 42.1 0.2ZM70.64 0.35L70.64 0.35Q67.29 0.35 65.09-0.88 62.89-2.1 61.84-4.08 60.79-6.05 60.79-8.35L60.79-8.35Q60.79-10.4 61.59-12.4 62.39-14.4 63.97-16.05 65.54-17.7 67.79-18.65L67.79-18.65Q65.74-19.95 64.72-21.78 63.69-23.6 63.69-25.6L63.69-25.6Q63.69-28.2 65.39-30.65 67.09-33.1 70.34-34.7 73.59-36.3 78.14-36.3L78.14-36.3Q81.29-36.3 83.17-35.52 85.04-34.75 85.89-33.52 86.74-32.3 86.74-30.9L86.74-30.9Q86.74-29.3 85.74-27.73 84.74-26.15 82.87-25.15 80.99-24.15 78.29-24.15L78.29-24.15Q79.09-26.5 79.09-28.05L79.09-28.05Q79.09-29.6 78.44-30.3 77.79-31 76.84-31L76.84-31Q75.84-31 74.72-30.25 73.59-29.5 72.84-28.15 72.09-26.8 72.09-25L72.09-25Q72.09-24.05 72.39-22.88 72.69-21.7 73.34-20.55L73.34-20.55Q74.44-21.25 75.37-21.58 76.29-21.9 77.04-21.9L77.04-21.9Q78.59-21.9 79.29-20.83 79.99-19.75 79.99-18.4L79.99-18.4Q79.99-16.8 79.02-15.35 78.04-13.9 76.14-13.9L76.14-13.9Q74.39-13.9 72.04-15.55L72.04-15.55Q69.29-13.6 69.29-10.95L69.29-10.95Q69.29-8.9 70.57-7.85 71.84-6.8 73.84-6.8L73.84-6.8Q76.39-6.8 79.54-8.58 82.69-10.35 85.14-13.9L85.14-13.9 85.54-13.65Q85.44-10.15 84.12-7.53 82.79-4.9 80.67-3.15 78.54-1.4 75.94-0.53 73.34 0.35 70.64 0.35ZM106.69 0.25L106.69 0.25Q104.94 0.25 103.64-0.9 102.34-2.05 102.34-4.65L102.34-4.65Q102.34-4.9 102.34-5.15 102.34-5.4 102.39-5.65L102.39-5.65Q100.89-2.65 99.02-1.23 97.14 0.2 95.24 0.2L95.24 0.2Q93.49 0.2 91.94-1.03 90.39-2.25 89.44-4.65 88.49-7.05 88.49-10.45L88.49-10.45Q88.49-13.95 89.47-16.7 90.44-19.45 92.04-21.35 93.64-23.25 95.54-24.23 97.44-25.2 99.24-25.2L99.24-25.2Q101.24-25.2 102.84-23.98 104.44-22.75 105.04-20.1L105.04-20.1Q105.19-20.95 105.27-21.65 105.34-22.35 105.34-22.6L105.34-22.6Q105.39-23.95 106.72-24.6 108.04-25.25 109.64-25.25L109.64-25.25Q111.04-25.25 112.29-24.7 113.54-24.15 113.99-22.85L113.99-22.85 114.09-22.55Q113.49-21.2 112.89-19.3 112.29-17.4 111.79-15.33 111.29-13.25 110.99-11.28 110.69-9.3 110.69-7.8L110.69-7.8Q110.69-6.15 111.04-5.53 111.39-4.9 111.89-4.9L111.89-4.9Q112.74-4.9 113.44-6.1L113.44-6.1 113.84-5.9Q113.84-4.2 112.74-2.8 111.64-1.4 109.99-0.58 108.34 0.25 106.69 0.25ZM98.54-6.1L98.54-6.1Q99.84-6.1 101.42-8.43 102.99-10.75 104.14-15.1L104.14-15.1Q104.24-15.55 104.34-15.98 104.44-16.4 104.49-16.8L104.49-16.8Q103.69-18.65 102.82-19.43 101.94-20.2 101.09-20.2L101.09-20.2Q99.84-20.2 98.77-18.88 97.69-17.55 97.02-15.55 96.34-13.55 96.34-11.55L96.34-11.55Q96.34-8.8 96.97-7.45 97.59-6.1 98.54-6.1ZM125.19 0.45L125.19 0.45Q122.09 0.45 120.04-0.4 117.99-1.25 116.99-2.58 115.99-3.9 115.99-5.25L115.99-5.25Q115.99-7.15 117.69-8.63 119.39-10.1 122.29-10.1L122.29-10.1Q122.29-7.55 122.94-6.03 123.59-4.5 124.61-3.85 125.64-3.2 126.59-3.2L126.59-3.2Q127.74-3.2 128.51-3.88 129.29-4.55 129.29-5.55L129.29-5.55Q129.29-6.95 127.84-8 126.39-9.05 124.09-10.35L124.09-10.35Q122.94-11.05 121.59-11.98 120.24-12.9 119.29-14.23 118.34-15.55 118.34-17.4L118.34-17.4Q118.34-19.35 119.46-20.85 120.59-22.35 122.44-23.38 124.29-24.4 126.44-24.93 128.59-25.45 130.64-25.45L130.64-25.45Q134.49-25.45 136.44-23.9 138.39-22.35 138.39-20.6L138.39-20.6Q138.39-19.1 136.89-17.9 135.39-16.7 132.29-16.7L132.29-16.7Q132.34-19.25 131.24-20.43 130.14-21.6 128.89-21.6L128.89-21.6Q127.99-21.6 127.39-21.05 126.79-20.5 126.79-19.45L126.79-19.45Q126.79-18.25 127.56-17.38 128.34-16.5 129.51-15.83 130.69-15.15 131.94-14.55L131.94-14.55Q133.64-13.75 135.14-12.85 136.64-11.95 137.59-10.8 138.54-9.65 138.54-8L138.54-8Q138.54-5.75 136.71-3.83 134.89-1.9 131.84-0.73 128.79 0.45 125.19 0.45ZM152.19 0.35L152.19 0.35Q148.53 0.35 146.13-1.13 143.74-2.6 142.53-5.03 141.34-7.45 141.34-10.25L141.34-10.25Q141.34-12.9 142.36-15.58 143.38-18.25 145.36-20.45 147.34-22.65 150.16-24 152.99-25.35 156.53-25.35L156.53-25.35Q160.94-25.35 162.96-23.38 164.99-21.4 164.99-18.6L164.99-18.6Q164.99-16.2 163.71-14.18 162.44-12.15 160.34-10.93 158.24-9.7 155.74-9.7L155.74-9.7Q154.44-9.7 153.09-10.1 151.74-10.5 150.44-11.35L150.44-11.35Q150.69-8.25 152.24-6.85 153.78-5.45 155.94-5.45L155.94-5.45Q157.44-5.45 158.94-6.03 160.44-6.6 161.71-7.53 162.99-8.45 163.69-9.5L163.69-9.5 164.03-9.25Q164.03-6.65 162.96-4.83 161.88-3 160.13-1.85 158.38-0.7 156.31-0.18 154.24 0.35 152.19 0.35ZM153.34-13.15L153.34-13.15Q154.94-13.15 155.94-14.08 156.94-15 157.44-16.25 157.94-17.5 157.94-18.45L157.94-18.45Q157.94-19.6 157.28-20.38 156.63-21.15 155.49-21.15L155.49-21.15Q154.59-21.15 153.51-20.5 152.44-19.85 151.59-18.28 150.74-16.7 150.49-13.9L150.49-13.9Q152.09-13.15 153.34-13.15Z" opacity="1" transform="matrix(1,0,0,1,0,0)" fill="#ffffff" class="wordmark-text-0" data-fill-palette-color="primary" id="text-0"></path></svg></g></svg></g><g transform="matrix(1,0,0,1,0,109.35368014217896)"><svg viewBox="0 0 395.52000000000004 43.61559122174911" height="43.61559122174911" width="395.52000000000004"><g transform="matrix(1,0,0,1,0,0)"><svg width="395.52000000000004" viewBox="3 -39.65 457.89 50.5" height="43.61559122174911" data-palette-color="#ffffff"><path d="M3-34.55L9.35-34.55 9.35 0 3 0 3-34.55ZM27.55-27.15Q30.4-27.15 32.05-25.1 33.7-23.05 33.7-19.6L33.7-19.6 33.7 0 27.55 0 27.55-18.9Q27.55-20.8 27.02-21.63 26.5-22.45 25.5-22.45L25.5-22.45Q23.4-22.45 21.35-18.5L21.35-18.5 21.35 0 15.2 0 15.2-26.45 20.55-26.45 21-23Q22.35-25.1 23.87-26.13 25.4-27.15 27.55-27.15L27.55-27.15ZM49.24-34.55L55.59-34.55 55.59-5.25 66.74-5.25 66.04 0 49.24 0 49.24-34.55ZM79.34-27.15Q84.34-27.15 87.12-23.65 89.89-20.15 89.89-13.25L89.89-13.25Q89.89-6.65 87.09-2.95 84.29 0.75 79.34 0.75L79.34 0.75Q74.39 0.75 71.59-2.88 68.79-6.5 68.79-13.25L68.79-13.25Q68.79-19.95 71.59-23.55 74.39-27.15 79.34-27.15L79.34-27.15ZM79.34-22.5Q77.19-22.5 76.19-20.38 75.19-18.25 75.19-13.25L75.19-13.25Q75.19-8.2 76.19-6.08 77.19-3.95 79.34-3.95L79.34-3.95Q81.49-3.95 82.49-6.08 83.49-8.2 83.49-13.25L83.49-13.25Q83.49-18.3 82.49-20.4 81.49-22.5 79.34-22.5L79.34-22.5ZM106.84-26.45L112.89-26.45 105.99 0 98.74 0 91.64-26.45 97.99-26.45 102.34-4.95 106.84-26.45ZM134.63-13.85Q134.63-13.4 134.49-11.3L134.49-11.3 120.84-11.3Q121.03-7.2 122.26-5.58 123.48-3.95 125.73-3.95L125.73-3.95Q127.28-3.95 128.53-4.48 129.78-5 131.24-6.15L131.24-6.15 133.78-2.65Q130.28 0.75 125.39 0.75L125.39 0.75Q120.19 0.75 117.41-2.85 114.64-6.45 114.64-13L114.64-13Q114.64-19.55 117.28-23.35 119.94-27.15 124.78-27.15L124.78-27.15Q129.44-27.15 132.03-23.78 134.63-20.4 134.63-13.85L134.63-13.85ZM128.63-15.3L128.63-15.65Q128.63-19.4 127.73-21.13 126.84-22.85 124.84-22.85L124.84-22.85Q122.98-22.85 122.01-21.18 121.03-19.5 120.84-15.3L120.84-15.3 128.63-15.3ZM148.93-34.55L155.28-34.55 155.28-5.25 166.43-5.25 165.73 0 148.93 0 148.93-34.55ZM169.63-26.45L175.78-26.45 175.78 0 169.63 0 169.63-26.45ZM172.68-39.65Q174.33-39.65 175.35-38.6 176.38-37.55 176.38-35.9L176.38-35.9Q176.38-34.3 175.35-33.25 174.33-32.2 172.68-32.2L172.68-32.2Q171.03-32.2 170-33.25 168.98-34.3 168.98-35.9L168.98-35.9Q168.98-37.55 170-38.6 171.03-39.65 172.68-39.65L172.68-39.65ZM199.43-29.85L200.97-25.1Q199.93-24.6 198.45-24.4 196.97-24.2 194.78-24.2L194.78-24.2Q196.88-23.2 197.9-21.53 198.93-19.85 198.93-17.4L198.93-17.4Q198.93-13.4 196.47-10.95 194.03-8.5 189.82-8.5L189.82-8.5Q188.57-8.5 187.28-8.9L187.28-8.9Q186.38-8.15 186.38-6.85L186.38-6.85Q186.38-5.85 186.93-5.35 187.47-4.85 188.97-4.85L188.97-4.85 191.78-4.85Q195.78-4.85 198.13-2.78 200.47-0.7 200.47 2.5L200.47 2.5Q200.47 6.3 197.55 8.58 194.63 10.85 189.22 10.85L189.22 10.85Q183.53 10.85 181.25 8.75 178.97 6.65 178.97 2.6L178.97 2.6 184.43 2.6Q184.43 4.75 185.43 5.65 186.43 6.55 189.28 6.55L189.28 6.55Q192.03 6.55 193.18 5.6 194.32 4.65 194.32 2.9L194.32 2.9Q194.32 1.2 193.38 0.4 192.43-0.4 190.43-0.4L190.43-0.4 188.53-0.4Q184.72-0.4 182.97-1.75 181.22-3.1 181.22-5.45L181.22-5.45Q181.22-6.8 181.95-8.03 182.68-9.25 183.93-10.2L183.93-10.2Q181.88-11.5 180.93-13.3 179.97-15.1 179.97-17.7L179.97-17.7Q179.97-22.05 182.57-24.58 185.18-27.1 189.57-27.1L189.57-27.1Q192.82-27.1 194.95-27.8 197.07-28.5 199.43-29.85L199.43-29.85ZM189.57-23Q187.82-23 186.93-21.75 186.03-20.5 186.03-17.8L186.03-17.8Q186.03-15.25 186.93-13.88 187.82-12.5 189.53-12.5L189.53-12.5Q191.28-12.5 192.13-13.73 192.97-14.95 192.97-17.85L192.97-17.85Q192.97-20.55 192.15-21.78 191.32-23 189.57-23L189.57-23ZM216.07-27.15Q218.92-27.15 220.57-25.1 222.22-23.05 222.22-19.6L222.22-19.6 222.22 0 216.07 0 216.07-18.9Q216.07-20.8 215.55-21.63 215.02-22.45 214.02-22.45L214.02-22.45Q211.92-22.45 209.87-18.5L209.87-18.5 209.87 0 203.72 0 203.72-37 209.87-37.65 209.87-23.3Q211.12-25.25 212.6-26.2 214.07-27.15 216.07-27.15L216.07-27.15ZM238.92-5L241.07-1.2Q238.62 0.75 235.32 0.75L235.32 0.75Q231.87 0.75 230.07-1.23 228.27-3.2 228.27-6.6L228.27-6.6 228.27-22 225.17-22 225.17-26.45 228.27-26.45 228.27-32.3 234.42-33.05 234.42-26.45 239.42-26.45 238.82-22 234.42-22 234.42-6.6Q234.42-4.2 236.47-4.2L236.47-4.2Q237.12-4.2 237.62-4.38 238.12-4.55 238.92-5L238.92-5ZM263.62-35.25Q267.67-35.25 269.99-33.08 272.31-30.9 272.31-27.35L272.31-27.35Q272.31-24.5 270.87-22.35 269.42-20.2 266.62-18.1L266.62-18.1 272.72-10.7Q274.06-14.65 274.76-18.35L274.76-18.35 279.72-17.1Q278.22-11.45 276.01-7.45L276.01-7.45 280.97-2.15 276.01 0.75 272.47-3.65Q270.51-1.4 268.26-0.33 266.01 0.75 263.26 0.75L263.26 0.75Q260.42 0.75 258.17-0.45 255.92-1.65 254.67-3.83 253.42-6 253.42-8.8L253.42-8.8Q253.42-11.85 254.79-14.08 256.17-16.3 259.17-18.6L259.17-18.6Q256.87-21 255.97-22.88 255.06-24.75 255.06-27.25L255.06-27.25Q255.06-30.75 257.26-33 259.47-35.25 263.62-35.25L263.62-35.25ZM263.72-31.15Q260.92-31.15 260.92-27.25L260.92-27.25Q260.92-25.5 261.47-24.23 262.01-22.95 263.42-21.15L263.42-21.15Q265.06-22.7 265.76-24 266.47-25.3 266.47-27.2L266.47-27.2Q266.47-31.15 263.72-31.15L263.72-31.15ZM262.51-15.25Q261.06-13.95 260.44-12.48 259.81-11 259.81-9L259.81-9Q259.81-6.5 261.01-5.15 262.22-3.8 264.26-3.8L264.26-3.8Q265.81-3.8 267.06-4.53 268.31-5.25 269.47-6.7L269.47-6.7 262.51-15.25ZM294.66-34.55L301.01-34.55 301.01-5.25 312.16-5.25 311.46 0 294.66 0 294.66-34.55ZM332.26-6.4Q332.26-5.1 332.61-4.48 332.96-3.85 333.76-3.45L333.76-3.45 332.51 0.65Q330.46 0.4 329.23-0.45 328.01-1.3 327.41-3.05L327.41-3.05Q325.11 0.75 320.96 0.75L320.96 0.75Q317.66 0.75 315.71-1.48 313.76-3.7 313.76-7.4L313.76-7.4Q313.76-11.7 316.43-13.95 319.11-16.2 324.21-16.2L324.21-16.2 326.26-16.2 326.26-18.05Q326.26-20.55 325.38-21.58 324.51-22.6 322.56-22.6L322.56-22.6Q320.21-22.6 316.71-21.3L316.71-21.3 315.31-25.3Q317.31-26.2 319.46-26.68 321.61-27.15 323.56-27.15L323.56-27.15Q332.26-27.15 332.26-18.35L332.26-18.35 332.26-6.4ZM322.61-3.7Q325.01-3.7 326.26-7L326.26-7 326.26-12.55 324.81-12.55Q322.26-12.55 321.08-11.4 319.91-10.25 319.91-7.85L319.91-7.85Q319.91-5.8 320.61-4.75 321.31-3.7 322.61-3.7L322.61-3.7ZM356.21-26.45L356.21 0 350.86 0 350.56-3.35Q349.31-1.3 347.76-0.28 346.21 0.75 344.16 0.75L344.16 0.75Q341.26 0.75 339.58-1.3 337.91-3.35 337.91-6.65L337.91-6.65 337.91-26.45 344.06-26.45 344.06-7Q344.06-3.9 346.16-3.9L346.16-3.9Q347.36-3.9 348.31-4.83 349.26-5.75 350.06-7.45L350.06-7.45 350.06-26.45 356.21-26.45ZM379.85-29.85L381.4-25.1Q380.35-24.6 378.88-24.4 377.4-24.2 375.2-24.2L375.2-24.2Q377.3-23.2 378.33-21.53 379.35-19.85 379.35-17.4L379.35-17.4Q379.35-13.4 376.9-10.95 374.45-8.5 370.25-8.5L370.25-8.5Q369-8.5 367.7-8.9L367.7-8.9Q366.8-8.15 366.8-6.85L366.8-6.85Q366.8-5.85 367.35-5.35 367.9-4.85 369.4-4.85L369.4-4.85 372.2-4.85Q376.2-4.85 378.55-2.78 380.9-0.7 380.9 2.5L380.9 2.5Q380.9 6.3 377.98 8.58 375.05 10.85 369.65 10.85L369.65 10.85Q363.95 10.85 361.68 8.75 359.4 6.65 359.4 2.6L359.4 2.6 364.85 2.6Q364.85 4.75 365.85 5.65 366.85 6.55 369.7 6.55L369.7 6.55Q372.45 6.55 373.6 5.6 374.75 4.65 374.75 2.9L374.75 2.9Q374.75 1.2 373.8 0.4 372.85-0.4 370.85-0.4L370.85-0.4 368.95-0.4Q365.15-0.4 363.4-1.75 361.65-3.1 361.65-5.45L361.65-5.45Q361.65-6.8 362.38-8.03 363.1-9.25 364.35-10.2L364.35-10.2Q362.3-11.5 361.35-13.3 360.4-15.1 360.4-17.7L360.4-17.7Q360.4-22.05 363-24.58 365.6-27.1 370-27.1L370-27.1Q373.25-27.1 375.38-27.8 377.5-28.5 379.85-29.85L379.85-29.85ZM370-23Q368.25-23 367.35-21.75 366.45-20.5 366.45-17.8L366.45-17.8Q366.45-15.25 367.35-13.88 368.25-12.5 369.95-12.5L369.95-12.5Q371.7-12.5 372.55-13.73 373.4-14.95 373.4-17.85L373.4-17.85Q373.4-20.55 372.58-21.78 371.75-23 370-23L370-23ZM396.5-27.15Q399.35-27.15 401-25.1 402.65-23.05 402.65-19.6L402.65-19.6 402.65 0 396.5 0 396.5-18.9Q396.5-20.8 395.98-21.63 395.45-22.45 394.45-22.45L394.45-22.45Q392.35-22.45 390.3-18.5L390.3-18.5 390.3 0 384.15 0 384.15-37 390.3-37.65 390.3-23.3Q391.55-25.25 393.03-26.2 394.5-27.15 396.5-27.15L396.5-27.15ZM419.35-5L421.5-1.2Q419.05 0.75 415.75 0.75L415.75 0.75Q412.3 0.75 410.5-1.23 408.7-3.2 408.7-6.6L408.7-6.6 408.7-22 405.6-22 405.6-26.45 408.7-26.45 408.7-32.3 414.85-33.05 414.85-26.45 419.85-26.45 419.25-22 414.85-22 414.85-6.6Q414.85-4.2 416.9-4.2L416.9-4.2Q417.55-4.2 418.05-4.38 418.55-4.55 419.35-5L419.35-5ZM442.9-13.85Q442.9-13.4 442.75-11.3L442.75-11.3 429.1-11.3Q429.3-7.2 430.52-5.58 431.75-3.95 434-3.95L434-3.95Q435.55-3.95 436.8-4.48 438.05-5 439.5-6.15L439.5-6.15 442.05-2.65Q438.55 0.75 433.65 0.75L433.65 0.75Q428.45 0.75 425.67-2.85 422.9-6.45 422.9-13L422.9-13Q422.9-19.55 425.55-23.35 428.2-27.15 433.05-27.15L433.05-27.15Q437.7-27.15 440.3-23.78 442.9-20.4 442.9-13.85L442.9-13.85ZM436.9-15.3L436.9-15.65Q436.9-19.4 436-21.13 435.1-22.85 433.1-22.85L433.1-22.85Q431.25-22.85 430.27-21.18 429.3-19.5 429.1-15.3L429.1-15.3 436.9-15.3ZM458.84-27.1Q459.99-27.1 460.89-26.75L460.89-26.75 459.89-20.85Q458.89-21.1 458.04-21.1L458.04-21.1Q456.14-21.1 455.04-19.45 453.94-17.8 453.34-14.55L453.34-14.55 453.34 0 447.19 0 447.19-26.45 452.54-26.45 452.99-21.85Q454.84-27.1 458.84-27.1L458.84-27.1Z" opacity="1" transform="matrix(1,0,0,1,0,0)" fill="#ffffff" class="slogan-text-1" data-fill-palette-color="secondary" id="text-1"></path></svg></g></svg></g></svg></g></svg></g><g></g></svg></g></svg></g></svg></g><defs></defs></svg><rect width="395.52" height="247.2" fill="none" stroke="none" visibility="hidden"></rect></g></svg></g></svg>