<svg xmlns="http://www.w3.org/2000/svg" version="1.1" xmlns:xlink="http://www.w3.org/1999/xlink" xmlns:svgjs="http://svgjs.dev/svgjs" width="1500" height="363" viewBox="0 0 1500 363"><g transform="matrix(1,0,0,1,-0.9090909090909918,-0.7989806834888213)"><svg viewBox="0 0 396 96" data-background-color="#ffffff" preserveAspectRatio="xMidYMid meet" height="363" width="1500" xmlns="http://www.w3.org/2000/svg" xmlns:xlink="http://www.w3.org/1999/xlink"><g id="tight-bounds" transform="matrix(1,0,0,1,0.2400000000000091,0.21130067662514307)"><svg viewBox="0 0 395.52 95.57739864674971" height="95.57739864674971" width="395.52"><g><svg viewBox="0 0 567.4575604487089 137.1261060632037" height="95.57739864674971" width="395.52"><g transform="matrix(1,0,0,1,171.93756044870895,2.2781146153476755)"><svg viewBox="0 0 395.52 132.56987683250836" height="132.56987683250836" width="395.52"><g id="textblocktransform"><svg viewBox="0 0 395.52 132.56987683250836" height="132.56987683250836" width="395.52" id="textblock"><g><svg viewBox="0 0 395.52 73.72933797909408" height="73.72933797909408" width="395.52"><g transform="matrix(1,0,0,1,0,0)"><svg width="395.52" viewBox="0.5 -32.1 170.69 32.1" height="73.72933797909408" data-palette-color="#556970"><g class="wordmark-text-0" data-fill-palette-color="primary" id="text-0"><path d="M21.75-32.1L32-0.6 32-0.45 23.5-0.45Q23.15-1.65 22.68-3.2 22.2-4.75 21.65-6.5L21.65-6.5 10.85-6.5Q9.85-3 9-0.45L9-0.45 0.5-0.45 0.5-0.55 10.75-32.1 21.75-32.1ZM16.35-26.4L16.15-26.4Q15.65-23.85 14.7-20.2 13.75-16.55 12.7-12.75L12.7-12.75 19.85-12.75Q18.75-16.55 17.8-20.2 16.85-23.85 16.35-26.4L16.35-26.4ZM36-7.75L36-7.75 36-18.25 33-18.25 33-24.75 36.75-24.75 38.25-30.7 44-30.7 44-24.75 49.45-24.75 49.45-18.25 44-18.25 44-9.5Q44-8.1 44.35-7.58 44.7-7.05 45.95-7.05L45.95-7.05Q46.75-7.05 47.65-7.13 48.55-7.2 49.45-7.3L49.45-7.3 49.6-7.2 49.6-0.7Q47.2 0 43.25 0L43.25 0Q39.3 0 37.65-1.8 36-3.6 36-7.75Z" fill="#556970" data-fill-palette-color="primary"></path><path d="M91.1-0.45L67.6-0.45 67.6-32.1 91.1-32.1 91.1-25.6 75.6-25.6 75.6-19.6 89.05-19.6 89.05-13.1 75.6-13.1 75.6-6.95 91.1-6.95 91.1-0.45ZM104.35-25.05L104.35-25.05Q109.15-25.05 112.1-24.05 115.05-23.05 116.42-20.38 117.8-17.7 117.8-12.65L117.8-12.65 117.8-0.45 110.55-0.45 110.3-2.75 110.15-2.75Q109.2-1.5 107.2-0.75 105.2 0 102 0L102 0Q93.35 0 93.35-8.1L93.35-8.1Q93.35-11.55 95.62-13.53 97.9-15.5 102.8-15.5L102.8-15.5 110.2-15.5Q109.85-17.6 108.4-18.32 106.95-19.05 103.45-19.05L103.45-19.05Q101.25-19.05 99.12-18.73 97-18.4 95.4-18L95.4-18 95.25-18.1 95.3-23.9Q96.3-24.2 97.85-24.48 99.4-24.75 101.12-24.9 102.85-25.05 104.35-25.05ZM104.05-5.9L104.05-5.9Q107.15-5.9 108.7-6.68 110.25-7.45 110.3-9.15L110.3-9.15 110.3-10.4 104.65-10.4Q102.45-10.4 101.57-9.78 100.7-9.15 100.7-8.1L100.7-8.1Q100.7-6.85 101.6-6.38 102.5-5.9 104.05-5.9ZM121.79-7.25L121.94-7.35Q125.84-6.25 130.59-6.25L130.59-6.25Q132.89-6.25 134.04-6.4 135.19-6.55 135.59-6.9 135.99-7.25 135.99-7.85L135.99-7.85Q135.99-8.7 135.37-8.9 134.74-9.1 132.89-9.45L132.89-9.45 128.94-10.2Q125.14-10.95 123.47-12.58 121.79-14.2 121.79-17.45L121.79-17.45Q121.79-21.85 124.42-23.45 127.04-25.05 132.79-25.05L132.79-25.05Q136.24-25.05 138.87-24.68 141.49-24.3 143.24-23.75L143.24-23.75 143.14-17.7 142.99-17.55Q138.94-18.85 134.14-18.85L134.14-18.85Q131.79-18.85 130.87-18.53 129.94-18.2 129.94-17.25L129.94-17.25Q129.94-16.75 130.22-16.45 130.49-16.15 131.49-15.88 132.49-15.6 134.64-15.2L134.64-15.2 138.29-14.5Q141.34-13.85 142.79-12.35 144.24-10.85 144.24-7.6L144.24-7.6Q144.24-4.75 143.19-3.08 142.14-1.4 139.67-0.7 137.19 0 132.84 0L132.84 0Q129.54 0 126.77-0.33 123.99-0.65 121.79-1.1L121.79-1.1 121.79-7.25ZM169.94-6.8L169.94-1.25Q168.54-0.75 166.07-0.38 163.59 0 160.19 0L160.19 0Q155.89 0 152.87-1.13 149.84-2.25 148.29-4.98 146.74-7.7 146.74-12.55L146.74-12.55Q146.74-19.15 149.77-22.1 152.79-25.05 159.14-25.05L159.14-25.05Q163.69-25.05 166.32-23.75 168.94-22.45 170.07-20.08 171.19-17.7 171.19-14.45L171.19-14.45Q171.19-13.5 171.12-12.4 171.04-11.3 170.84-10.25L170.84-10.25 170.64-10.05 154.19-10.05Q154.54-7.85 156.27-7.15 157.99-6.45 161.89-6.45L161.89-6.45Q164.49-6.45 166.22-6.58 167.94-6.7 169.74-6.95L169.74-6.95 169.94-6.8ZM154.04-15.3L164.24-15.3Q164.24-16.5 163.87-17.38 163.49-18.25 162.39-18.73 161.29-19.2 159.14-19.2L159.14-19.2Q155.99-19.2 155.02-18.13 154.04-17.05 154.04-15.3L154.04-15.3Z" fill="#ff005b" data-fill-palette-color="accent"></path></g></svg></g></svg></g><g transform="matrix(1,0,0,1,0,91.13506517184669)"><svg viewBox="0 0 375.74399999999997 41.43481166066165" height="41.43481166066165" width="375.74399999999997"><g transform="matrix(1,0,0,1,0,0)"><svg width="375.74399999999997" viewBox="3 -39.65 457.89 50.5" height="41.43481166066165" data-palette-color="#556970"><path d="M3-34.55L9.35-34.55 9.35 0 3 0 3-34.55ZM27.55-27.15Q30.4-27.15 32.05-25.1 33.7-23.05 33.7-19.6L33.7-19.6 33.7 0 27.55 0 27.55-18.9Q27.55-20.8 27.02-21.63 26.5-22.45 25.5-22.45L25.5-22.45Q23.4-22.45 21.35-18.5L21.35-18.5 21.35 0 15.2 0 15.2-26.45 20.55-26.45 21-23Q22.35-25.1 23.87-26.13 25.4-27.15 27.55-27.15L27.55-27.15ZM49.24-34.55L55.59-34.55 55.59-5.25 66.74-5.25 66.04 0 49.24 0 49.24-34.55ZM79.34-27.15Q84.34-27.15 87.12-23.65 89.89-20.15 89.89-13.25L89.89-13.25Q89.89-6.65 87.09-2.95 84.29 0.75 79.34 0.75L79.34 0.75Q74.39 0.75 71.59-2.88 68.79-6.5 68.79-13.25L68.79-13.25Q68.79-19.95 71.59-23.55 74.39-27.15 79.34-27.15L79.34-27.15ZM79.34-22.5Q77.19-22.5 76.19-20.38 75.19-18.25 75.19-13.25L75.19-13.25Q75.19-8.2 76.19-6.08 77.19-3.95 79.34-3.95L79.34-3.95Q81.49-3.95 82.49-6.08 83.49-8.2 83.49-13.25L83.49-13.25Q83.49-18.3 82.49-20.4 81.49-22.5 79.34-22.5L79.34-22.5ZM106.84-26.45L112.89-26.45 105.99 0 98.74 0 91.64-26.45 97.99-26.45 102.34-4.95 106.84-26.45ZM134.63-13.85Q134.63-13.4 134.49-11.3L134.49-11.3 120.84-11.3Q121.03-7.2 122.26-5.58 123.48-3.95 125.73-3.95L125.73-3.95Q127.28-3.95 128.53-4.48 129.78-5 131.24-6.15L131.24-6.15 133.78-2.65Q130.28 0.75 125.39 0.75L125.39 0.75Q120.19 0.75 117.41-2.85 114.64-6.45 114.64-13L114.64-13Q114.64-19.55 117.28-23.35 119.94-27.15 124.78-27.15L124.78-27.15Q129.44-27.15 132.03-23.78 134.63-20.4 134.63-13.85L134.63-13.85ZM128.63-15.3L128.63-15.65Q128.63-19.4 127.73-21.13 126.84-22.85 124.84-22.85L124.84-22.85Q122.98-22.85 122.01-21.18 121.03-19.5 120.84-15.3L120.84-15.3 128.63-15.3ZM148.93-34.55L155.28-34.55 155.28-5.25 166.43-5.25 165.73 0 148.93 0 148.93-34.55ZM169.63-26.45L175.78-26.45 175.78 0 169.63 0 169.63-26.45ZM172.68-39.65Q174.33-39.65 175.35-38.6 176.38-37.55 176.38-35.9L176.38-35.9Q176.38-34.3 175.35-33.25 174.33-32.2 172.68-32.2L172.68-32.2Q171.03-32.2 170-33.25 168.98-34.3 168.98-35.9L168.98-35.9Q168.98-37.55 170-38.6 171.03-39.65 172.68-39.65L172.68-39.65ZM199.43-29.85L200.97-25.1Q199.93-24.6 198.45-24.4 196.97-24.2 194.78-24.2L194.78-24.2Q196.88-23.2 197.9-21.53 198.93-19.85 198.93-17.4L198.93-17.4Q198.93-13.4 196.47-10.95 194.03-8.5 189.82-8.5L189.82-8.5Q188.57-8.5 187.28-8.9L187.28-8.9Q186.38-8.15 186.38-6.85L186.38-6.85Q186.38-5.85 186.93-5.35 187.47-4.85 188.97-4.85L188.97-4.85 191.78-4.85Q195.78-4.85 198.13-2.78 200.47-0.7 200.47 2.5L200.47 2.5Q200.47 6.3 197.55 8.58 194.63 10.85 189.22 10.85L189.22 10.85Q183.53 10.85 181.25 8.75 178.97 6.65 178.97 2.6L178.97 2.6 184.43 2.6Q184.43 4.75 185.43 5.65 186.43 6.55 189.28 6.55L189.28 6.55Q192.03 6.55 193.18 5.6 194.32 4.65 194.32 2.9L194.32 2.9Q194.32 1.2 193.38 0.4 192.43-0.4 190.43-0.4L190.43-0.4 188.53-0.4Q184.72-0.4 182.97-1.75 181.22-3.1 181.22-5.45L181.22-5.45Q181.22-6.8 181.95-8.03 182.68-9.25 183.93-10.2L183.93-10.2Q181.88-11.5 180.93-13.3 179.97-15.1 179.97-17.7L179.97-17.7Q179.97-22.05 182.57-24.58 185.18-27.1 189.57-27.1L189.57-27.1Q192.82-27.1 194.95-27.8 197.07-28.5 199.43-29.85L199.43-29.85ZM189.57-23Q187.82-23 186.93-21.75 186.03-20.5 186.03-17.8L186.03-17.8Q186.03-15.25 186.93-13.88 187.82-12.5 189.53-12.5L189.53-12.5Q191.28-12.5 192.13-13.73 192.97-14.95 192.97-17.85L192.97-17.85Q192.97-20.55 192.15-21.78 191.32-23 189.57-23L189.57-23ZM216.07-27.15Q218.92-27.15 220.57-25.1 222.22-23.05 222.22-19.6L222.22-19.6 222.22 0 216.07 0 216.07-18.9Q216.07-20.8 215.55-21.63 215.02-22.45 214.02-22.45L214.02-22.45Q211.92-22.45 209.87-18.5L209.87-18.5 209.87 0 203.72 0 203.72-37 209.87-37.65 209.87-23.3Q211.12-25.25 212.6-26.2 214.07-27.15 216.07-27.15L216.07-27.15ZM238.92-5L241.07-1.2Q238.62 0.75 235.32 0.75L235.32 0.75Q231.87 0.75 230.07-1.23 228.27-3.2 228.27-6.6L228.27-6.6 228.27-22 225.17-22 225.17-26.45 228.27-26.45 228.27-32.3 234.42-33.05 234.42-26.45 239.42-26.45 238.82-22 234.42-22 234.42-6.6Q234.42-4.2 236.47-4.2L236.47-4.2Q237.12-4.2 237.62-4.38 238.12-4.55 238.92-5L238.92-5ZM263.62-35.25Q267.67-35.25 269.99-33.08 272.31-30.9 272.31-27.35L272.31-27.35Q272.31-24.5 270.87-22.35 269.42-20.2 266.62-18.1L266.62-18.1 272.72-10.7Q274.06-14.65 274.76-18.35L274.76-18.35 279.72-17.1Q278.22-11.45 276.01-7.45L276.01-7.45 280.97-2.15 276.01 0.75 272.47-3.65Q270.51-1.4 268.26-0.33 266.01 0.75 263.26 0.75L263.26 0.75Q260.42 0.75 258.17-0.45 255.92-1.65 254.67-3.83 253.42-6 253.42-8.8L253.42-8.8Q253.42-11.85 254.79-14.08 256.17-16.3 259.17-18.6L259.17-18.6Q256.87-21 255.97-22.88 255.06-24.75 255.06-27.25L255.06-27.25Q255.06-30.75 257.26-33 259.47-35.25 263.62-35.25L263.62-35.25ZM263.72-31.15Q260.92-31.15 260.92-27.25L260.92-27.25Q260.92-25.5 261.47-24.23 262.01-22.95 263.42-21.15L263.42-21.15Q265.06-22.7 265.76-24 266.47-25.3 266.47-27.2L266.47-27.2Q266.47-31.15 263.72-31.15L263.72-31.15ZM262.51-15.25Q261.06-13.95 260.44-12.48 259.81-11 259.81-9L259.81-9Q259.81-6.5 261.01-5.15 262.22-3.8 264.26-3.8L264.26-3.8Q265.81-3.8 267.06-4.53 268.31-5.25 269.47-6.7L269.47-6.7 262.51-15.25ZM294.66-34.55L301.01-34.55 301.01-5.25 312.16-5.25 311.46 0 294.66 0 294.66-34.55ZM332.26-6.4Q332.26-5.1 332.61-4.48 332.96-3.85 333.76-3.45L333.76-3.45 332.51 0.65Q330.46 0.4 329.23-0.45 328.01-1.3 327.41-3.05L327.41-3.05Q325.11 0.75 320.96 0.75L320.96 0.75Q317.66 0.75 315.71-1.48 313.76-3.7 313.76-7.4L313.76-7.4Q313.76-11.7 316.43-13.95 319.11-16.2 324.21-16.2L324.21-16.2 326.26-16.2 326.26-18.05Q326.26-20.55 325.38-21.58 324.51-22.6 322.56-22.6L322.56-22.6Q320.21-22.6 316.71-21.3L316.71-21.3 315.31-25.3Q317.31-26.2 319.46-26.68 321.61-27.15 323.56-27.15L323.56-27.15Q332.26-27.15 332.26-18.35L332.26-18.35 332.26-6.4ZM322.61-3.7Q325.01-3.7 326.26-7L326.26-7 326.26-12.55 324.81-12.55Q322.26-12.55 321.08-11.4 319.91-10.25 319.91-7.85L319.91-7.85Q319.91-5.8 320.61-4.75 321.31-3.7 322.61-3.7L322.61-3.7ZM356.21-26.45L356.21 0 350.86 0 350.56-3.35Q349.31-1.3 347.76-0.28 346.21 0.75 344.16 0.75L344.16 0.75Q341.26 0.75 339.58-1.3 337.91-3.35 337.91-6.65L337.91-6.65 337.91-26.45 344.06-26.45 344.06-7Q344.06-3.9 346.16-3.9L346.16-3.9Q347.36-3.9 348.31-4.83 349.26-5.75 350.06-7.45L350.06-7.45 350.06-26.45 356.21-26.45ZM379.85-29.85L381.4-25.1Q380.35-24.6 378.88-24.4 377.4-24.2 375.2-24.2L375.2-24.2Q377.3-23.2 378.33-21.53 379.35-19.85 379.35-17.4L379.35-17.4Q379.35-13.4 376.9-10.95 374.45-8.5 370.25-8.5L370.25-8.5Q369-8.5 367.7-8.9L367.7-8.9Q366.8-8.15 366.8-6.85L366.8-6.85Q366.8-5.85 367.35-5.35 367.9-4.85 369.4-4.85L369.4-4.85 372.2-4.85Q376.2-4.85 378.55-2.78 380.9-0.7 380.9 2.5L380.9 2.5Q380.9 6.3 377.98 8.58 375.05 10.85 369.65 10.85L369.65 10.85Q363.95 10.85 361.68 8.75 359.4 6.65 359.4 2.6L359.4 2.6 364.85 2.6Q364.85 4.75 365.85 5.65 366.85 6.55 369.7 6.55L369.7 6.55Q372.45 6.55 373.6 5.6 374.75 4.65 374.75 2.9L374.75 2.9Q374.75 1.2 373.8 0.4 372.85-0.4 370.85-0.4L370.85-0.4 368.95-0.4Q365.15-0.4 363.4-1.75 361.65-3.1 361.65-5.45L361.65-5.45Q361.65-6.8 362.38-8.03 363.1-9.25 364.35-10.2L364.35-10.2Q362.3-11.5 361.35-13.3 360.4-15.1 360.4-17.7L360.4-17.7Q360.4-22.05 363-24.58 365.6-27.1 370-27.1L370-27.1Q373.25-27.1 375.38-27.8 377.5-28.5 379.85-29.85L379.85-29.85ZM370-23Q368.25-23 367.35-21.75 366.45-20.5 366.45-17.8L366.45-17.8Q366.45-15.25 367.35-13.88 368.25-12.5 369.95-12.5L369.95-12.5Q371.7-12.5 372.55-13.73 373.4-14.95 373.4-17.85L373.4-17.85Q373.4-20.55 372.58-21.78 371.75-23 370-23L370-23ZM396.5-27.15Q399.35-27.15 401-25.1 402.65-23.05 402.65-19.6L402.65-19.6 402.65 0 396.5 0 396.5-18.9Q396.5-20.8 395.98-21.63 395.45-22.45 394.45-22.45L394.45-22.45Q392.35-22.45 390.3-18.5L390.3-18.5 390.3 0 384.15 0 384.15-37 390.3-37.65 390.3-23.3Q391.55-25.25 393.03-26.2 394.5-27.15 396.5-27.15L396.5-27.15ZM419.35-5L421.5-1.2Q419.05 0.75 415.75 0.75L415.75 0.75Q412.3 0.75 410.5-1.23 408.7-3.2 408.7-6.6L408.7-6.6 408.7-22 405.6-22 405.6-26.45 408.7-26.45 408.7-32.3 414.85-33.05 414.85-26.45 419.85-26.45 419.25-22 414.85-22 414.85-6.6Q414.85-4.2 416.9-4.2L416.9-4.2Q417.55-4.2 418.05-4.38 418.55-4.55 419.35-5L419.35-5ZM442.9-13.85Q442.9-13.4 442.75-11.3L442.75-11.3 429.1-11.3Q429.3-7.2 430.52-5.58 431.75-3.95 434-3.95L434-3.95Q435.55-3.95 436.8-4.48 438.05-5 439.5-6.15L439.5-6.15 442.05-2.65Q438.55 0.75 433.65 0.75L433.65 0.75Q428.45 0.75 425.67-2.85 422.9-6.45 422.9-13L422.9-13Q422.9-19.55 425.55-23.35 428.2-27.15 433.05-27.15L433.05-27.15Q437.7-27.15 440.3-23.78 442.9-20.4 442.9-13.85L442.9-13.85ZM436.9-15.3L436.9-15.65Q436.9-19.4 436-21.13 435.1-22.85 433.1-22.85L433.1-22.85Q431.25-22.85 430.27-21.18 429.3-19.5 429.1-15.3L429.1-15.3 436.9-15.3ZM458.84-27.1Q459.99-27.1 460.89-26.75L460.89-26.75 459.89-20.85Q458.89-21.1 458.04-21.1L458.04-21.1Q456.14-21.1 455.04-19.45 453.94-17.8 453.34-14.55L453.34-14.55 453.34 0 447.19 0 447.19-26.45 452.54-26.45 452.99-21.85Q454.84-27.1 458.84-27.1L458.84-27.1Z" opacity="1" transform="matrix(1,0,0,1,0,0)" fill="#556970" class="slogan-text-1" data-fill-palette-color="secondary" id="text-1"></path></svg></g></svg></g></svg></g></svg></g><g><svg viewBox="0 0 137.1261060632037 137.1261060632037" height="137.1261060632037" width="137.1261060632037"><g><svg></svg></g><g id="icon-0"><svg viewBox="0 0 137.1261060632037 137.1261060632037" height="137.1261060632037" width="137.1261060632037"><g><path d="M0 68.563c0-37.866 30.697-68.563 68.563-68.563 37.866 0 68.563 30.697 68.563 68.563 0 37.866-30.697 68.563-68.563 68.563-37.866 0-68.563-30.697-68.563-68.563zM68.563 130.477c34.194 0 61.914-27.72 61.914-61.914 0-34.194-27.72-61.914-61.914-61.914-34.194 0-61.914 27.72-61.914 61.914 0 34.194 27.72 61.914 61.914 61.914z" data-fill-palette-color="accent" fill="#ff005b" stroke="transparent"></path></g><g transform="matrix(1,0,0,1,32.391034504104496,32.412799472991935)"><svg viewBox="0 0 72.34403705499471 72.30050711721984" height="72.30050711721984" width="72.34403705499471"><g><svg xmlns="http://www.w3.org/2000/svg" xmlns:xlink="http://www.w3.org/1999/xlink" version="1.1" x="0" y="0" viewBox="0.9461680204046408 2 96.05657141143212 95.99877346779193" enable-background="new 0 0 100 100" xml:space="preserve" height="72.30050711721984" width="72.34403705499471" class="icon-dxe-0" data-fill-palette-color="accent" id="dxe-0"><g fill="#ff005b" data-fill-palette-color="accent"><path fill="#ff005b" d="M93.732 14.804L28.318 2H26.665C24.862 2 23 3.445 23 5.224V6.867L23.203 53.277A24.2 24.2 0 0 0 14.388 55.206C4.269 59.487-1.33 69.224 1.826 76.952 4.979 84.68 15.766 87.473 25.888 83.192 34.775 79.432 39.841 71.464 38.897 64.345 39.168 63.874 39 63.355 39 62.769V21.345L81 30.945V66.08C78 66.205 75.134 66.793 72.268 68.006 62.15 72.286 56.409 82.024 59.565 89.751 62.717 97.48 73.436 100.273 83.554 95.992 92.666 92.136 98.112 83.861 96.812 76.608 96.924 76.28 97 75.937 97 75.567V18.022C97 16.245 95.537 14.804 93.732 14.804" data-fill-palette-color="accent"></path></g></svg></g></svg></g></svg></g></svg></g></svg></g><defs></defs></svg><rect width="395.52" height="95.57739864674971" fill="none" stroke="none" visibility="hidden"></rect></g></svg></g></svg>